<svg xmlns="http://www.w3.org/2000/svg" width="35" height="32" viewBox="0 0 35 32"><path fill="#fff" d="M23.672 5.855c0 2.704-2.192 4.896-4.896 4.896S13.88 8.56 13.88 5.856C13.88 3.15 16.072.96 18.776.96s4.896 2.19 4.896 4.895z"/><path fill="#fff" d="M35.13 11.104c-.455.05-.102 2.574-3.18 3.13C30.282 10.9 26.95 8.58 23.065 8.58h-9.64c-.808 0-1.565.1-2.322.303-.303-.454-1.06-1.413-2.524-1.615-2.02-.303-3.483.858-3.382 1.363s2.02.05 3.18 1.414c-2.423 1.464-4.19 3.937-4.744 6.864-1.464.96-3.23 1.01-3.432 2.27-1.01 5.604 3.28 5.3 3.28 5.3s1.818 2.878 6.613 4.09v.706c0 1.514 1.21 2.726 2.726 2.726s2.727-1.21 2.727-2.726v-.252h6.057v.252c0 1.514 1.21 2.726 2.726 2.726s2.726-1.21 2.726-2.726v-.808-.202c3.584-1.565 6.158-5.2 6.158-9.438 0-1.262-.252-2.473-.656-3.584.656-.202 1.464-.606 2.02-1.21 1.008-1.263.908-2.98.554-2.928zm-27.51 6.31c-.908 0-1.614-.758-1.614-1.616 0-.91.757-1.615 1.615-1.615.91 0 1.616.757 1.616 1.615.05.91-.707 1.615-1.615 1.615zm15.85-6.158h-9.085c-.404 0-.757-.353-.757-.757s.353-.758.757-.758h9.085c.404 0 .757.353.757.757s-.353.756-.757.756z"/></svg>