<?xml version="1.0" encoding="utf-8"?>
<!-- Generator: Adobe Illustrator 17.1.0, SVG Export Plug-In . SVG Version: 6.00 Build 0)  -->
<!DOCTYPE svg PUBLIC "-//W3C//DTD SVG 1.1//EN" "http://www.w3.org/Graphics/SVG/1.1/DTD/svg11.dtd">
<svg version="1.1" id="Layer_2" xmlns="http://www.w3.org/2000/svg" xmlns:xlink="http://www.w3.org/1999/xlink" x="0px" y="0px"
	 viewBox="0 0 117.2 200.3" enable-background="new 0 0 117.2 200.3" xml:space="preserve">
<path fill="#FFFFFF" d="M114.7,173.3c0,13.5-10.8,24.5-24.1,24.5H26.6c-13.3,0-24.1-11-24.1-24.5V27c0-13.5,10.8-24.5,24.1-24.5
	h63.9c13.3,0,24.1,11,24.1,24.5V173.3z"/>
<path fill="none" stroke="#179190" stroke-width="5" stroke-miterlimit="10" d="M114.7,173.3c0,13.5-10.8,24.5-24.1,24.5H26.6
	c-13.3,0-24.1-11-24.1-24.5V27c0-13.5,10.8-24.5,24.1-24.5h63.9c13.3,0,24.1,11,24.1,24.5V173.3z"/>
<rect x="11.2" y="28.2" fill="#BCD8C5" width="94.7" height="143.9"/>
<path fill="#14375D" d="M72,19.9c0,1.2-0.9,2.1-2.1,2.1H47.3c-1.2,0-2.1-0.9-2.1-2.1l0,0c0-1.2,0.9-2.1,2.1-2.1h22.6
	C71.1,17.8,72,18.8,72,19.9L72,19.9z"/>
<circle fill="#14375D" cx="58.6" cy="11.9" r="2.3"/>
<rect x="16.4" y="34.7" fill="#338FC2" width="84.4" height="12.4"/>
<rect x="17.6" y="59.1" fill="#14375D" width="62.7" height="4.3"/>
<rect x="17.6" y="68.7" fill="#14375D" width="72.8" height="4.3"/>
<rect x="17.6" y="78.3" fill="#14375D" width="41" height="4.3"/>
<path fill="#338FC2" d="M98.3,162.1c0,1.1-0.9,2-2,2H20.9c-1.1,0-2-0.9-2-2v-12.2c0-1.1,0.9-2,2-2h75.5c1.1,0,2,0.9,2,2V162.1z"/>
<circle fill="#179190" cx="58.6" cy="184.5" r="8.8"/>
<path fill="none" stroke="#179190" stroke-width="5" stroke-miterlimit="10" d="M114.7,27v146.3"/>
<path fill="#FFFFFF" fill-opacity="0.35" d="M117.2,174.9c0,13.8-11.3,25-25.2,25H25.2c-13.9,0-25.2-11.2-25.2-25V25.4
	c0-13.8,11.3-25,25.2-25H92c13.9,0,25.2,11.2,25.2,25V174.9z"/>
</svg>
